<?xml version="1.0" encoding="UTF-8" standalone="no"?>
<!-- Created with Inkscape (http://www.inkscape.org/) -->

<svg
   xmlns:dc="http://purl.org/dc/elements/1.1/"
   xmlns:cc="http://creativecommons.org/ns#"
   xmlns:rdf="http://www.w3.org/1999/02/22-rdf-syntax-ns#"
   xmlns:svg="http://www.w3.org/2000/svg"
   xmlns="http://www.w3.org/2000/svg"
   xmlns:sodipodi="http://sodipodi.sourceforge.net/DTD/sodipodi-0.dtd"
   xmlns:inkscape="http://www.inkscape.org/namespaces/inkscape"
   width="3227.6628"
   height="2636.7712"
   id="svg2"
   version="1.1"
   inkscape:version="0.48.0 r9654"
   sodipodi:docname="t_shirt_template_XXL.svg">
  <defs
     id="defs4">
    <inkscape:path-effect
       effect="spiro"
       id="path-effect3806"
       is_visible="true" />
  </defs>
  <sodipodi:namedview
     id="base"
     pagecolor="#ffffff"
     bordercolor="#666666"
     borderopacity="1.0"
     inkscape:pageopacity="0.0"
     inkscape:pageshadow="2"
     inkscape:zoom="0.2169507"
     inkscape:cx="1592.4668"
     inkscape:cy="1168.2091"
     inkscape:document-units="mm"
     inkscape:current-layer="layer2"
     showgrid="false"
     units="mm"
     inkscape:snap-bbox="true"
     inkscape:bbox-nodes="true"
     inkscape:bbox-paths="true"
     inkscape:snap-bbox-edge-midpoints="true"
     inkscape:snap-bbox-midpoints="true"
     inkscape:object-paths="true"
     inkscape:snap-intersection-paths="true"
     inkscape:snap-smooth-nodes="true"
     inkscape:object-nodes="true"
     inkscape:snap-midpoints="true"
     inkscape:snap-object-midpoints="true"
     inkscape:snap-center="true"
     inkscape:snap-page="true"
     inkscape:snap-grids="false"
     inkscape:snap-to-guides="false"
     inkscape:window-width="1680"
     inkscape:window-height="1031"
     inkscape:window-x="-4"
     inkscape:window-y="-4"
     inkscape:window-maximized="1"
     fit-margin-top="0"
     fit-margin-left="0"
     fit-margin-right="0"
     fit-margin-bottom="0" />
  <metadata
     id="metadata7">
    <rdf:RDF>
      <cc:Work
         rdf:about="">
        <dc:format>image/svg+xml</dc:format>
        <dc:type
           rdf:resource="http://purl.org/dc/dcmitype/StillImage" />
        <dc:title></dc:title>
      </cc:Work>
    </rdf:RDF>
  </metadata>
  <g
     inkscape:label="material"
     inkscape:groupmode="layer"
     id="layer1"
     transform="translate(1863.7534,1873.7763)">
    <path
       style="fill:none;stroke:#000000;stroke-width:1.24015737;stroke-miterlimit:4;stroke-opacity:1;stroke-dasharray:none"
       d="m -596,-1873.1562 -549.2188,193.125 c 75.9585,332.0289 12.0562,636.2751 -140.5,919.99995 l 0.125,0 0,1522.40625 1035.5313,0 0.28125,0 1035.53125,0 0,-1522.40625 0.125,0 C 633.31885,-1043.7561 569.41663,-1348.0023 645.375,-1680.0312 l -549.21875,-193.125 c 0,204.4974 -154.869531,370.2812 -345.9375,370.2812 -0.0933,0 -0.18798,10e-5 -0.28125,0 -191.0679,0 -345.9375,-165.7838 -345.9375,-370.2812 z"
       id="rect2985"
       inkscape:connector-curvature="0"
       transform="translate(0,2.5390623e-6)" />
  </g>
  <g
     inkscape:groupmode="layer"
     id="layer2"
     inkscape:label="steatch"
     transform="translate(1863.7534,1873.7763)">
    <path
       style="color:#000000;fill:none;stroke:#000000;stroke-width:1.24015749;stroke-linecap:butt;stroke-linejoin:miter;stroke-miterlimit:4;stroke-opacity:1;stroke-dasharray:none;stroke-dashoffset:0;marker:none;visibility:visible;display:inline;overflow:visible;enable-background:accumulate"
       d="m -596,-1873.1562 c 234.27639,50.9175 464.73241,48.3498 691.91829,0"
       id="path3864"
       inkscape:connector-curvature="0" />
    <path
       id="path4065"
       style="color:#000000;fill:none;stroke:#000000;stroke-width:1.24015749;stroke-linecap:butt;stroke-linejoin:miter;stroke-miterlimit:4;stroke-opacity:1;stroke-dasharray:none;stroke-dashoffset:0;marker:none;visibility:visible;display:inline;overflow:visible;enable-background:accumulate"
       d="m -249.8437,-1450.4409 c -20.7649,0.1017 -41.5609,-1.5709 -62.1424,-5.1314 -128.8955,-21.362 -241.8109,-112.4698 -295.197,-230.8993 -24.2406,-52.6928 -39.2789,-110.3897 -40.0743,-168.5521 m 397.25736,404.5828 c 20.76497,0.1017 41.56093,-1.5709 62.1424,-5.1314 128.895518,-21.362 241.810963,-112.4698 295.19699,-230.8993 24.24066,-52.6928 39.27894,-110.3897 40.07435,-168.5521"
       inkscape:connector-curvature="0" />
    <path
       id="rect4094"
       style="color:#000000;fill:none;stroke:#000000;stroke-width:1.24015749;stroke-linecap:butt;stroke-linejoin:miter;stroke-miterlimit:4;stroke-opacity:1;stroke-dashoffset:0;marker:none;visibility:visible;display:inline;overflow:visible;enable-background:accumulate"
       d="m 645.375,-1680.0312 717.9145,251.131 -227.7319,651.02294 -349.4432,17.676 m -0.2394,0.1701 C 633.3188,-1043.7561 569.4166,-1348.0023 645.375,-1680.0312 m 140.375,920.00004 0.125,0"
       inkscape:connector-curvature="0" />
    <path
       inkscape:connector-curvature="0"
       d="m -1145.2188,-1680.0312 -717.9145,251.131 227.7319,651.02294 349.4432,17.676 m 0.2394,0.1701 c 152.5562,-283.72494 216.4584,-587.97114 140.5,-920.00004 m -140.375,920.00004 -0.125,0"
       style="color:#000000;fill:none;stroke:#000000;stroke-width:1.24015749;stroke-linecap:butt;stroke-linejoin:miter;stroke-miterlimit:4;stroke-opacity:1;stroke-dashoffset:0;marker:none;visibility:visible;display:inline;overflow:visible;enable-background:accumulate"
       id="path4151" />
    <path
       id="path4153"
       style="fill:none;stroke:#000000;stroke-width:1;stroke-linecap:butt;stroke-linejoin:miter;stroke-miterlimit:4;stroke-opacity:1;stroke-dasharray:4, 4;stroke-dashoffset:0"
       d="m -1774.0365,-1460.0668 240.6248,687.34854 m -263.2983,-679.41724 237.155,678.09484 m 2833.7477,-686.02614 -240.6248,687.34854 m 263.2983,-679.41724 -237.155,678.09484 m -2345.43,1442.50526 2070.95238,0 m 0,26.5748 -2070.95238,0 m 163.2586,-2383.0733 c 53.1606,234.0519 38.837,494.605 -43.8969,719.63882 -28.3382,79.3746 -76.3657,180.18418 -119.2366,252.75893 M 622.6165,-1688.0339 c -53.1606,234.0519 -38.837,494.605 43.8968,719.63882 28.3383,79.3747 76.3657,180.18422 119.2367,252.75897"
       inkscape:connector-curvature="0" />
  </g>
</svg>
